<svg width="503" height="58" viewBox="0 0 503 58" fill="none" xmlns="http://www.w3.org/2000/svg">
<path d="M27.6304 48.8854C35.7066 48.8854 40.383 44.6342 41.2334 36.5575H53.9851C53.5599 48.035 45.1433 57.812 27.6304 57.812C9.35186 57.812 0 45.4846 0 28.906C0 12.3279 9.35186 0.000488281 27.6304 0.000488281C45.0584 0.000488281 53.5599 9.77757 53.9851 21.2545H41.2334C40.383 13.6031 35.7066 8.92762 27.6304 8.92762C19.5542 8.92762 12.7526 14.0283 12.7526 28.906C12.7526 43.7838 19.5542 48.8854 27.6304 48.8854Z" fill="#EFEF58"/>
<path d="M85.7918 44.2092H64.7084L60.3724 56.5366H47.6198L68.8738 1.27637H81.6264L102.88 56.5366H90.1279L85.7918 44.2092ZM68.0234 34.8573H82.4769L75.2501 14.4537L68.0234 34.8573Z" fill="#EFEF58"/>
<path d="M114.361 34.4326V56.5366H102.884V1.27637H128.814C143.267 1.27637 150.068 6.80224 150.068 15.7289C150.068 27.2059 139.866 28.9062 139.866 28.9062V29.3315C139.866 29.3315 148.368 29.7567 148.368 41.2336V45.9101C148.368 54.4115 151.343 56.1114 151.343 56.1114V56.5366H139.016C139.016 56.5366 136.891 55.2609 136.891 48.0352V44.6344C136.891 38.2581 136.04 34.4326 126.263 34.4326H114.361ZM129.239 25.0807C133.915 25.0807 137.316 22.1052 137.316 17.8545C137.316 13.1786 134.341 10.6277 129.664 10.6277H114.361V25.0807H129.239Z" fill="#EFEF58"/>
<path d="M198.914 10.6277H179.785V56.5366H168.308V10.6277H149.179V1.27637H198.914V10.6277Z" fill="#EFEF58"/>
<path d="M221.595 0C239.45 0 249.651 12.3274 249.651 28.9055C249.651 45.4841 239.45 57.8116 221.595 57.8116C203.742 57.8116 193.541 45.4841 193.541 28.9055C193.541 12.3274 203.742 0 221.595 0ZM221.595 48.8849C229.672 48.8849 236.898 43.3581 236.898 28.9055C236.898 14.453 229.672 8.92713 221.595 8.92713C213.519 8.92713 206.292 14.453 206.292 28.9055C206.292 43.3581 213.519 48.8849 221.595 48.8849Z" fill="#EFEF58"/>
<path d="M304.911 56.5359H294.709V46.3336C294.709 46.3336 290.883 57.8116 276.005 57.8116C260.277 57.8116 249.65 47.184 249.65 28.9055C249.65 11.0522 261.127 0 278.131 0C295.134 0 304.486 9.35186 304.911 21.2541H292.159C291.308 13.1778 285.782 8.92713 278.131 8.92713C270.054 8.92713 262.402 13.6026 262.402 28.9055C262.402 44.6337 270.479 48.8849 278.555 48.8849C286.207 48.8849 292.584 43.7833 293.009 34.8566H275.156V25.5053H304.911V56.5359Z" fill="#EFEF58"/>
<path d="M316.385 34.4326V56.5366H304.908V1.27637H330.839C345.291 1.27637 352.093 6.80224 352.093 15.7289C352.093 27.2059 341.89 28.9062 341.89 28.9062V29.3315C341.89 29.3315 350.392 29.7567 350.392 41.2336V45.9101C350.392 54.4115 353.367 56.1114 353.367 56.1114V56.5366H341.04C341.04 56.5366 338.915 55.2609 338.915 48.0352V44.6344C338.915 38.2581 338.064 34.4326 328.287 34.4326H316.385ZM331.263 25.0807C335.939 25.0807 339.34 22.1052 339.34 17.8545C339.34 13.1786 336.364 10.6277 331.688 10.6277H316.385V25.0807H331.263Z" fill="#EFEF58"/>
<path d="M391.542 44.2092H370.458L366.123 56.5366H353.37L374.624 1.27637H387.377L408.631 56.5366H395.879L391.542 44.2092ZM373.774 34.8573H388.227L381.001 14.4537L373.774 34.8573Z" fill="#EFEF58"/>
<path d="M408.633 1.27637H434.988C446.89 1.27637 455.392 5.95181 455.392 17.8545C455.392 29.7567 446.89 34.4326 434.988 34.4326H420.11V56.5366H408.633V1.27637ZM420.11 25.0807H434.988C439.664 25.0807 442.64 22.5299 442.64 17.8545C442.64 13.1786 439.664 10.6277 434.988 10.6277H420.11V25.0807Z" fill="#EFEF58"/>
<path d="M491.523 33.5822H466.868V56.5366H455.391V1.27637H466.868V24.2303H491.523V1.27637H503V56.5366H491.523V33.5822Z" fill="#EFEF58"/>
</svg>
